<svg width="36" height="36" viewBox="0 0 36 36" fill="none" xmlns="http://www.w3.org/2000/svg">
<circle cx="18" cy="18" r="17" stroke="#A5F08E" stroke-width="2"/>
<path d="M12.3051 17.332C11.9611 17.332 11.6531 17.252 11.3811 17.092C11.1091 16.932 10.8931 16.712 10.7331 16.432C10.5731 16.152 10.4931 15.832 10.4931 15.472C10.4931 15.12 10.5731 14.804 10.7331 14.524C10.8931 14.236 11.1091 14.012 11.3811 13.852C11.6611 13.692 11.9771 13.612 12.3291 13.612C12.6731 13.612 12.9811 13.692 13.2531 13.852C13.5251 14.012 13.7411 14.232 13.9011 14.512C14.0611 14.792 14.1411 15.112 14.1411 15.472C14.1411 15.824 14.0611 16.144 13.9011 16.432C13.7411 16.712 13.5211 16.932 13.2411 17.092C12.9691 17.252 12.6571 17.332 12.3051 17.332ZM12.2451 22H11.3571L16.5291 13.72H17.4171L12.2451 22ZM11.4531 14.896C11.3731 15.056 11.3331 15.248 11.3331 15.472C11.3331 15.696 11.3731 15.892 11.4531 16.06C11.5411 16.22 11.6571 16.348 11.8011 16.444C11.9531 16.54 12.1251 16.588 12.3171 16.588C12.5091 16.588 12.6771 16.54 12.8211 16.444C12.9731 16.348 13.0891 16.22 13.1691 16.06C13.2571 15.892 13.3011 15.696 13.3011 15.472C13.3011 15.248 13.2571 15.056 13.1691 14.896C13.0891 14.728 12.9731 14.596 12.8211 14.5C12.6771 14.404 12.5091 14.356 12.3171 14.356C12.1251 14.356 11.9531 14.404 11.8011 14.5C11.6571 14.596 11.5411 14.728 11.4531 14.896ZM16.4451 22.108C16.1011 22.108 15.7931 22.028 15.5211 21.868C15.2491 21.708 15.0331 21.488 14.8731 21.208C14.7131 20.928 14.6331 20.608 14.6331 20.248C14.6331 19.896 14.7131 19.58 14.8731 19.3C15.0331 19.012 15.2491 18.788 15.5211 18.628C15.8011 18.468 16.1171 18.388 16.4691 18.388C16.8131 18.388 17.1211 18.468 17.3931 18.628C17.6651 18.788 17.8811 19.008 18.0411 19.288C18.2011 19.568 18.2811 19.888 18.2811 20.248C18.2811 20.6 18.2011 20.92 18.0411 21.208C17.8811 21.488 17.6611 21.708 17.3811 21.868C17.1091 22.028 16.7971 22.108 16.4451 22.108ZM15.9411 21.22C16.0931 21.316 16.2651 21.364 16.4571 21.364C16.6491 21.364 16.8171 21.316 16.9611 21.22C17.1131 21.124 17.2291 20.996 17.3091 20.836C17.3971 20.668 17.4411 20.472 17.4411 20.248C17.4411 20.024 17.3971 19.832 17.3091 19.672C17.2291 19.504 17.1131 19.372 16.9611 19.276C16.8171 19.18 16.6491 19.132 16.4571 19.132C16.2651 19.132 16.0931 19.18 15.9411 19.276C15.7971 19.372 15.6811 19.504 15.5931 19.672C15.5131 19.832 15.4731 20.024 15.4731 20.248C15.4731 20.472 15.5131 20.668 15.5931 20.836C15.6811 20.996 15.7971 21.124 15.9411 21.22ZM23.9644 21.664C23.5084 22.008 22.9684 22.18 22.3444 22.18C21.7204 22.18 21.1804 22.008 20.7244 21.664C20.2764 21.312 19.9284 20.812 19.6804 20.164C19.4404 19.516 19.3204 18.748 19.3204 17.86C19.3204 16.972 19.4444 16.204 19.6924 15.556C19.9404 14.908 20.2924 14.412 20.7484 14.068C21.2044 13.716 21.7444 13.54 22.3684 13.54C22.9924 13.54 23.5284 13.716 23.9764 14.068C24.4324 14.412 24.7804 14.908 25.0204 15.556C25.2684 16.204 25.3924 16.972 25.3924 17.86C25.3924 18.748 25.2684 19.516 25.0204 20.164C24.7724 20.812 24.4204 21.312 23.9644 21.664ZM21.2524 20.884C21.5564 21.148 21.9244 21.28 22.3564 21.28C22.7884 21.28 23.1524 21.148 23.4484 20.884C23.7524 20.612 23.9844 20.22 24.1444 19.708C24.3044 19.196 24.3844 18.58 24.3844 17.86C24.3844 17.132 24.3044 16.516 24.1444 16.012C23.9844 15.5 23.7524 15.112 23.4484 14.848C23.1524 14.576 22.7884 14.44 22.3564 14.44C21.9244 14.44 21.5564 14.576 21.2524 14.848C20.9564 15.112 20.7284 15.5 20.5684 16.012C20.4084 16.516 20.3284 17.132 20.3284 17.86C20.3284 18.58 20.4084 19.196 20.5684 19.708C20.7284 20.22 20.9564 20.612 21.2524 20.884Z" fill="white"/>
<path d="M9 18.6364H12.4545L14.6136 11L18.9318 25L22.8182 15.2424L24.5455 18.6364H28" stroke="#2CBB00" stroke-width="2"/>
</svg>
