<svg width="16" height="14" viewBox="0 0 16 14" fill="none" xmlns="http://www.w3.org/2000/svg">
<g clip-path="url(#clip0_29_159)">
<path d="M7.27273 13.9333C6.26667 13.9333 5.32121 13.7512 4.43636 13.387C3.55152 13.0227 2.78182 12.5289 2.12727 11.9053C1.47273 11.2818 0.954668 10.548 0.573092 9.70398C0.191516 8.85997 0.000485769 7.95863 9.20598e-07 6.99998C-0.000483928 6.04133 0.190546 5.14 0.573092 4.29598C0.955637 3.45197 1.4737 2.71819 2.12727 2.09465C2.78085 1.47111 3.55055 0.977228 4.43636 0.612997C5.32218 0.248766 6.26764 0.0666504 7.27273 0.0666504C7.85455 0.0666504 8.42133 0.130206 8.97309 0.257317C9.52485 0.384428 10.055 0.569317 10.5636 0.811984C10.7455 0.904428 10.8638 1.04309 10.9185 1.22798C10.9733 1.41287 10.9399 1.58621 10.8182 1.74798C10.6965 1.90976 10.5358 2.01376 10.336 2.05998C10.1362 2.10621 9.93939 2.08309 9.74545 1.99065C9.35757 1.81732 8.95442 1.68443 8.536 1.59198C8.11758 1.49954 7.69648 1.45332 7.27273 1.45332C5.64848 1.45332 4.27273 1.99065 3.14546 3.06532C2.01818 4.13998 1.45455 5.45154 1.45455 6.99998C1.45455 8.54843 2.01818 9.85998 3.14546 10.9346C4.27273 12.0093 5.64848 12.5466 7.27273 12.5466C7.58788 12.5466 7.89697 12.5235 8.2 12.4773C8.50303 12.4311 8.80606 12.3618 9.10909 12.2693C9.31515 12.2115 9.51515 12.2088 9.70909 12.261C9.90303 12.3132 10.0545 12.4258 10.1636 12.5987C10.2606 12.7604 10.2817 12.9338 10.2269 13.1187C10.1721 13.3035 10.048 13.4307 9.85454 13.5C9.44242 13.6502 9.01818 13.76 8.58182 13.8293C8.14545 13.8987 7.70909 13.9333 7.27273 13.9333ZM12.3636 10.4667H10.9091C10.703 10.4667 10.5304 10.4001 10.3913 10.267C10.2521 10.1339 10.1823 9.9693 10.1818 9.77332C10.1813 9.57733 10.2512 9.41278 10.3913 9.27966C10.5314 9.14654 10.704 9.07998 10.9091 9.07998H12.3636V7.69332C12.3636 7.49687 12.4335 7.33232 12.5731 7.19966C12.7127 7.06701 12.8853 7.00045 13.0909 6.99998C13.2965 6.99952 13.4693 7.06608 13.6095 7.19966C13.7496 7.33325 13.8192 7.4978 13.8182 7.69332V9.07998H15.2727C15.4788 9.07998 15.6516 9.14654 15.7913 9.27966C15.9309 9.41278 16.0005 9.57733 16 9.77332C15.9995 9.9693 15.9297 10.1341 15.7905 10.2677C15.6514 10.4012 15.4788 10.4676 15.2727 10.4667H13.8182V11.8533C13.8182 12.0498 13.7484 12.2145 13.6087 12.3477C13.4691 12.4808 13.2965 12.5471 13.0909 12.5466C12.8853 12.5462 12.7127 12.4796 12.5731 12.347C12.4335 12.2143 12.3636 12.0498 12.3636 11.8533V10.4667ZM6.25455 8.24798L13.0182 1.78265C13.1515 1.65554 13.3212 1.59198 13.5273 1.59198C13.7333 1.59198 13.903 1.65554 14.0364 1.78265C14.1697 1.90976 14.2364 2.07154 14.2364 2.26798C14.2364 2.46443 14.1697 2.62621 14.0364 2.75332L6.76364 9.70398C6.61818 9.84265 6.44848 9.91198 6.25455 9.91198C6.06061 9.91198 5.89091 9.84265 5.74545 9.70398L3.67273 7.72798C3.53939 7.60087 3.47273 7.4391 3.47273 7.24265C3.47273 7.04621 3.53939 6.88443 3.67273 6.75732C3.80606 6.63021 3.97576 6.56665 4.18182 6.56665C4.38788 6.56665 4.55758 6.63021 4.69091 6.75732L6.25455 8.24798Z" fill="white"/>
</g>
<defs>
<clipPath id="clip0_29_159">
<rect width="16" height="14" fill="white"/>
</clipPath>
</defs>
</svg>
