<svg width="16" height="16" viewBox="0 0 16 16" fill="none" xmlns="http://www.w3.org/2000/svg">
<path d="M6.66699 13.3334H9.33366C9.33366 14.0698 8.73671 14.6667 8.00033 14.6667C7.26395 14.6667 6.66699 14.0698 6.66699 13.3334Z" fill="#1E8000"/>
<path d="M8.66942 2.66663H7.33024L6.64599 2.91277C5.05849 3.48384 3.99997 4.98955 3.99997 6.67664V8.89021C3.99997 9.37937 3.76997 9.84006 3.37899 10.134C2.01408 11.1603 2.73987 13.3333 4.44755 13.3333H11.5523C13.26 13.3333 13.9858 11.1603 12.6209 10.134C12.23 9.84007 12 9.37938 12 8.89023V6.67672C12 4.98958 10.9414 3.48384 9.35383 2.9128L8.66942 2.66663Z" fill="#71DC50"/>
<path d="M7.33301 2.00004C7.33301 1.63185 7.63148 1.33337 7.99967 1.33337C8.36786 1.33337 8.66634 1.63185 8.66634 2.00004V2.66671H7.33301V2.00004Z" fill="#1E8000"/>
</svg>
