<svg width="21" height="20" viewBox="0 0 21 20" fill="none" xmlns="http://www.w3.org/2000/svg">
<path d="M6.984 14.2617L7.409 16.7275C7.46387 16.9251 7.57995 17.1002 7.74055 17.2276C7.90115 17.3551 8.09802 17.4284 8.30289 17.4371C8.50776 17.4457 8.71009 17.3891 8.88082 17.2756C9.05156 17.162 9.18191 16.9973 9.25317 16.805L11.5765 10.2367C11.6401 10.063 11.6528 9.87487 11.6131 9.69429C11.5733 9.51371 11.4828 9.34826 11.3521 9.21743C11.2214 9.08659 11.0561 8.99583 10.8756 8.95583C10.6951 8.91583 10.5069 8.92826 10.3332 8.99166L3.6365 11.315C3.43759 11.3837 3.26641 11.5151 3.14877 11.6896C3.03112 11.8641 2.9734 12.0721 2.98432 12.2822C2.99523 12.4923 3.07418 12.6932 3.20926 12.8546C3.34434 13.0159 3.52822 13.129 3.73317 13.1767L6.3265 13.6017C6.48252 13.6479 6.6245 13.7324 6.73949 13.8475C6.85448 13.9627 6.93882 14.1047 6.98483 14.2608" stroke="white" stroke-width="1.5" stroke-linecap="round" stroke-linejoin="round"/>
<path d="M2.58123 7.76169C2.99812 6.43222 3.75069 5.23268 4.7663 4.27884C5.78191 3.325 7.02627 2.64908 8.37924 2.31633C9.73222 1.98357 11.1481 2.00522 12.4903 2.37918C13.8325 2.75314 15.0556 3.46678 16.0416 4.45122C17.0275 5.43566 17.7431 6.65766 18.1191 7.99925C18.4952 9.34083 18.519 10.7567 18.1884 12.1102C17.8577 13.4637 17.1838 14.7091 16.2315 15.7262C15.2793 16.7433 14.0809 17.4977 12.7521 17.9167" stroke="white" stroke-width="1.5" stroke-linecap="round"/>
</svg>
