<svg width="21" height="20" viewBox="0 0 21 20" fill="none" xmlns="http://www.w3.org/2000/svg">
<path d="M14.016 14.2617L13.591 16.7275C13.5361 16.9251 13.4201 17.1002 13.2595 17.2276C13.0988 17.3551 12.902 17.4284 12.6971 17.4371C12.4922 17.4457 12.2899 17.3891 12.1192 17.2756C11.9484 17.162 11.8181 16.9973 11.7468 16.805L9.4235 10.2367C9.35987 10.063 9.34719 9.87487 9.38695 9.69429C9.42671 9.51371 9.51725 9.34826 9.6479 9.21743C9.77856 9.08659 9.94389 8.99583 10.1244 8.95583C10.3049 8.91583 10.4931 8.92826 10.6668 8.99166L17.3635 11.315C17.5624 11.3837 17.7336 11.5151 17.8512 11.6896C17.9689 11.8641 18.0266 12.0721 18.0157 12.2822C18.0048 12.4923 17.9258 12.6932 17.7907 12.8546C17.6557 13.0159 17.4718 13.129 17.2668 13.1767L14.6735 13.6017C14.5175 13.6479 14.3755 13.7324 14.2605 13.8475C14.1455 13.9627 14.0612 14.1047 14.0152 14.2608" stroke="white" stroke-width="1.5" stroke-linecap="round" stroke-linejoin="round"/>
<path d="M18.4188 7.76169C18.0019 6.43222 17.2493 5.23268 16.2337 4.27884C15.2181 3.325 13.9737 2.64908 12.6208 2.31633C11.2678 1.98357 9.85187 2.00522 8.5097 2.37918C7.16752 2.75314 5.94442 3.46678 4.95844 4.45122C3.97247 5.43566 3.25692 6.65766 2.88087 7.99925C2.50482 9.34083 2.48096 10.7567 2.81161 12.1102C3.14226 13.4637 3.81624 14.7091 4.76849 15.7262C5.72075 16.7433 6.91912 17.4977 8.24793 17.9167" stroke="white" stroke-width="1.5" stroke-linecap="round"/>
</svg>
