<svg width="21" height="20" viewBox="0 0 21 20" fill="none" xmlns="http://www.w3.org/2000/svg">
<path d="M13.498 6.75122L17.498 2.75122L13.498 6.75122ZM17.498 2.75122V5.75122V2.75122ZM17.498 2.75122H14.498H17.498Z" fill="white"/>
<path d="M13.498 6.75122L17.498 2.75122M17.498 2.75122V5.75122M17.498 2.75122H14.498" stroke="white" stroke-width="1.5" stroke-linecap="round" stroke-linejoin="round"/>
<path d="M2.25007 4.67625C2.24475 4.57789 2.22011 4.48154 2.17756 4.3927C2.135 4.30386 2.07537 4.22428 2.00206 4.15849C1.92874 4.0927 1.84319 4.04199 1.75028 4.00926C1.65738 3.97654 1.55893 3.96243 1.46057 3.96775C1.36221 3.97307 1.26586 3.99771 1.17702 4.04026C1.08819 4.08282 1.0086 4.14245 0.94281 4.21576C0.87702 4.28907 0.826313 4.37463 0.793586 4.46754C0.760859 4.56044 0.746752 4.65889 0.752071 4.75725L2.25007 4.67625ZM3.21607 0.843248C3.08474 0.988388 3.01535 1.17912 3.02272 1.37472C3.03009 1.57032 3.11365 1.75529 3.25553 1.89013C3.39742 2.02497 3.58641 2.099 3.78213 2.09641C3.97785 2.09381 4.16481 2.0148 4.30307 1.87625L3.21607 0.843248ZM9.16207 17.5632C9.24547 17.617 9.3387 17.6537 9.43637 17.6711C9.53403 17.6886 9.63419 17.6865 9.73105 17.665C9.8279 17.6434 9.91952 17.6029 10.0006 17.5457C10.0817 17.4886 10.1506 17.4159 10.2034 17.3319C10.2562 17.2478 10.2918 17.1542 10.3081 17.0563C10.3245 16.9585 10.3212 16.8583 10.2986 16.7617C10.276 16.6651 10.2344 16.574 10.1763 16.4936C10.1182 16.4132 10.0447 16.3451 9.96007 16.2932L9.16207 17.5632ZM13.6111 17.8092C13.4163 17.7685 13.2133 17.8069 13.0467 17.9158C12.8802 18.0248 12.7638 18.1954 12.7231 18.3902C12.6824 18.585 12.7207 18.788 12.8297 18.9546C12.9386 19.1211 13.1093 19.2375 13.3041 19.2782L13.6111 17.8092ZM14.1431 13.2952L14.5981 12.8152L13.5101 11.7822L13.0551 12.2622L14.1431 13.2952ZM16.0971 12.6132L18.0071 13.7132L18.7561 12.4132L16.8451 11.3132L16.0971 12.6132ZM18.3761 15.9932L16.9551 17.4882L18.0431 18.5222L19.4631 17.0262L18.3761 15.9932ZM6.85707 13.7102C2.98107 9.62925 2.33107 6.18625 2.25007 4.67625L0.752071 4.75725C0.852071 6.60725 1.63607 10.3912 5.77007 14.7432L6.85707 13.7102ZM8.23307 7.07325L8.51907 6.77125L7.43207 5.73825L7.14507 6.04025L8.23307 7.07325ZM8.74507 3.01125L7.48407 1.22825L6.25907 2.09425L7.51907 3.87725L8.74507 3.01125ZM7.68807 6.55625C7.5081 6.38279 7.32643 6.21112 7.14307 6.04125L7.14107 6.04325L7.13807 6.04625L7.08807 6.10425C6.99015 6.23407 6.91259 6.37805 6.85807 6.53125C6.76007 6.80625 6.70807 7.17025 6.77407 7.62425C6.90407 8.51625 7.48907 9.71525 9.01607 11.3242L10.1041 10.2902C8.67607 8.78725 8.32407 7.86225 8.25807 7.40625C8.22607 7.18625 8.25807 7.07125 8.27107 7.03425L8.27907 7.01525L8.25107 7.05225L8.23307 7.07325L7.68807 6.55625ZM9.01607 11.3232C10.5391 12.9272 11.6891 13.5572 12.5661 13.7002C13.0171 13.7732 13.3821 13.7142 13.6581 13.6052C13.8115 13.5456 13.9541 13.4612 14.0801 13.3552L14.1151 13.3212L14.1291 13.3072L14.1361 13.3012L14.1391 13.2982L14.1401 13.2962C14.1401 13.2962 14.1421 13.2952 13.5981 12.7782C13.0541 12.2622 13.0551 12.2612 13.0551 12.2602L13.0571 12.2592L13.0591 12.2562L13.0651 12.2512L13.1121 12.2092C13.1214 12.2039 13.1197 12.2042 13.1071 12.2102C13.0871 12.2182 12.9971 12.2502 12.8071 12.2192C12.4051 12.1532 11.5371 11.7992 10.1041 10.2902L9.01607 11.3232ZM7.48407 1.22825C6.47007 -0.205752 4.44207 -0.448752 3.21607 0.843248L4.30307 1.87625C4.82607 1.32625 5.74707 1.36925 6.25907 2.09425L7.48407 1.22825ZM16.9551 17.4882C16.6761 17.7822 16.3851 17.9402 16.1011 17.9682L16.2481 19.4602C16.9951 19.3872 17.6001 18.9892 18.0431 18.5222L16.9551 17.4882ZM8.51907 6.77125C9.48707 5.75225 9.55507 4.15825 8.74507 3.01125L7.52007 3.87725C7.94207 4.47425 7.87707 5.27025 7.43207 5.73825L8.51907 6.77125ZM18.0071 13.7132C18.8281 14.1862 18.9891 15.3482 18.3761 15.9932L19.4631 17.0262C20.7681 15.6522 20.3881 13.3532 18.7561 12.4132L18.0071 13.7132ZM14.5981 12.8152C14.9831 12.4092 15.5841 12.3182 16.0971 12.6132L16.8451 11.3132C15.7461 10.6812 14.3851 10.8622 13.5101 11.7822L14.5981 12.8152ZM9.96007 16.2932C8.97707 15.6752 7.93007 14.8392 6.85707 13.7102L5.77007 14.7432C6.92407 15.9582 8.06707 16.8752 9.16207 17.5632L9.96007 16.2932ZM16.1001 17.9682C15.2671 18.0409 14.428 17.9873 13.6111 17.8092L13.3041 19.2782C14.2706 19.4871 15.2632 19.5485 16.2481 19.4602L16.1001 17.9682Z" fill="white"/>
</svg>
