<svg width="24" height="24" viewBox="0 0 24 24" fill="none" xmlns="http://www.w3.org/2000/svg">
<path fill-rule="evenodd" clip-rule="evenodd" d="M12.0237 13.0261L8.80733 16.2425C8.51716 16.5326 8.04676 16.5327 7.75666 16.2426C7.46657 15.9525 7.46662 15.4821 7.75679 15.1919L10.9732 11.9756L7.76983 8.77223C7.52726 8.4736 7.54971 8.03989 7.82182 7.76778C8.09393 7.49567 8.52764 7.47322 8.82627 7.71579L12.024 10.9135L15.2347 7.70275C15.5334 7.46011 15.9671 7.48246 16.2391 7.7545C16.5112 8.02654 16.5335 8.46025 16.2909 8.75894L13.0801 11.9697L16.2835 15.173C16.526 15.4716 16.5036 15.9053 16.2315 16.1775C15.9594 16.4496 15.5257 16.472 15.227 16.2294L12.0237 13.0261Z" fill="#040415"/>
</svg>
