<svg width="14" height="14" viewBox="0 0 14 14" fill="none" xmlns="http://www.w3.org/2000/svg">
<path fill-rule="evenodd" clip-rule="evenodd" d="M7.03455 8.45367L2.43705 13.0102C2.02228 13.4213 1.34989 13.4214 0.935223 13.0104C0.520557 12.5994 0.520638 11.933 0.935405 11.5219L5.53291 6.96541L0.954042 2.42735C0.607315 2.00429 0.639404 1.38987 1.02836 1.00438C1.41731 0.618888 2.03727 0.587085 2.46412 0.930723L7.03491 5.46078L11.6243 0.912254C12.0513 0.568514 12.6712 0.600168 13.0601 0.985563C13.4489 1.37096 13.4809 1.98538 13.134 2.40852L8.54462 6.95704L13.1235 11.4951C13.4702 11.9182 13.4381 12.5326 13.0492 12.9181C12.6602 13.3036 12.0403 13.3354 11.6134 12.9917L7.03455 8.45367Z" fill="white"/>
</svg>
