<svg width="22" height="14" viewBox="0 0 22 14" fill="none" xmlns="http://www.w3.org/2000/svg">
<path d="M6.82129 8.98804L10.9416 12.37C11.1419 12.5343 11.3973 12.6109 11.6524 12.5832C11.9074 12.5554 12.1415 12.4257 12.304 12.222L20.4646 1.98804" stroke="black" stroke-width="2" stroke-linecap="round"/>
<path fill-rule="evenodd" clip-rule="evenodd" d="M9.93039 8.22514L14.3976 2.62114C14.5565 2.41537 14.6302 2.15371 14.6028 1.89267C14.5753 1.63162 14.4489 1.39213 14.2508 1.22591C14.0527 1.05969 13.7989 0.980074 13.5441 1.00425C13.2893 1.02843 13.054 1.15446 12.889 1.35514L8.43254 6.94514L9.93039 8.22514ZM6.84407 12.0951L5.34623 10.8151L4.70987 11.6131L1.55924 9.18814C1.35247 9.02901 1.09257 8.96068 0.836708 8.99819C0.580846 9.03569 0.349984 9.17596 0.194908 9.38814C0.0398328 9.60031 -0.0267533 9.86701 0.00979842 10.1296C0.0463501 10.3921 0.183045 10.629 0.389813 10.7881L3.54044 13.2131C3.94264 13.5226 4.44582 13.6606 4.94485 13.5984C5.44388 13.5361 5.90018 13.2785 6.21843 12.8791L6.84407 12.0951Z" fill="black"/>
</svg>
