<svg width="22" height="14" viewBox="0 0 22 14" fill="none" xmlns="http://www.w3.org/2000/svg">
<path d="M7 8.98804L11.228 12.37C11.4336 12.5343 11.6957 12.6109 11.9574 12.5832C12.2191 12.5554 12.4593 12.4257 12.626 12.222L21 1.98804" stroke="white" stroke-width="2" stroke-linecap="round"/>
<path d="M4.53298 12.0131L4.91642 12.3007L5.21996 11.9298L5.55358 11.5221L6.32199 12.162L5.99416 12.5624L5.99396 12.5626C5.74903 12.8621 5.39786 13.0554 5.0138 13.102C4.62974 13.1487 4.24249 13.0452 3.93296 12.8131L0.700024 10.3882L0.700004 10.3881C0.593917 10.3086 0.523783 10.1901 0.505029 10.0588C0.486276 9.92757 0.520439 9.79422 0.600004 9.68814C0.679569 9.58205 0.798017 9.51192 0.929293 9.49316C1.06056 9.47441 1.1939 9.50857 1.29998 9.58812C1.29999 9.58813 1.3 9.58813 1.3 9.58814L4.53298 12.0131ZM14.4874 1.94633C14.5014 2.0758 14.4643 2.20557 14.3841 2.30807L10.1224 7.51812L9.35384 6.8781L13.6102 1.67519C13.6947 1.57623 13.8146 1.51412 13.9443 1.50213C14.075 1.49004 14.2052 1.52985 14.3068 1.61296C14.4085 1.69607 14.4733 1.81581 14.4874 1.94633Z" fill="black" stroke="white"/>
</svg>
