<svg width="16" height="16" viewBox="0 0 16 16" fill="none" xmlns="http://www.w3.org/2000/svg">
<path d="M6.99334 0.353911C7.54513 -0.11797 8.44879 -0.11797 9.00857 0.353911L10.2721 1.44164C10.512 1.64959 10.9598 1.81755 11.2797 1.81755H12.6392C13.4869 1.81755 14.1826 2.51337 14.1826 3.36116V4.72082C14.1826 5.03274 14.3505 5.48863 14.5585 5.72857L15.646 6.99225C16.1179 7.54411 16.1179 8.44789 15.646 9.00775L14.5585 10.2714C14.3505 10.5114 14.1826 10.9593 14.1826 11.2792V12.6388C14.1826 13.4866 13.4869 14.1825 12.6392 14.1825H11.2797C10.9678 14.1825 10.512 14.3504 10.2721 14.5584L9.00857 15.6461C8.45678 16.118 7.55313 16.118 6.99334 15.6461L5.72982 14.5584C5.48991 14.3504 5.04208 14.1825 4.7222 14.1825H3.33873C2.49105 14.1825 1.79532 13.4866 1.79532 12.6388V11.2712C1.79532 10.9593 1.62738 10.5114 1.42746 10.2714L0.347868 8.99975C-0.115956 8.44789 -0.115956 7.55211 0.347868 7.00025L1.42746 5.72857C1.62738 5.48863 1.79532 5.04074 1.79532 4.72882V3.35316C1.79532 2.50537 2.49105 1.80955 3.33873 1.80955H4.7222C5.03409 1.80955 5.48991 1.64159 5.72982 1.43364L6.99334 0.353911Z" fill="#4AB817"/>
<path d="M7.44466 10.2183C7.31133 10.2183 7.18466 10.165 7.09133 10.0717L5.47801 8.45833C5.28467 8.265 5.28467 7.945 5.47801 7.75167C5.67134 7.55833 5.99134 7.55833 6.18467 7.75167L7.44466 9.01167L10.3113 6.145C10.5046 5.95167 10.8246 5.95167 11.018 6.145C11.2113 6.33833 11.2113 6.65833 11.018 6.85167L7.79799 10.0717C7.70466 10.165 7.578 10.2183 7.44466 10.2183Z" fill="white"/>
</svg>
