<svg width="36" height="37" viewBox="0 0 36 37" fill="none" xmlns="http://www.w3.org/2000/svg">
<circle cx="18" cy="18.5" r="17" stroke="#71DC50" stroke-width="2"/>
<path d="M12.3051 17.832C11.9611 17.832 11.6531 17.752 11.3811 17.592C11.1091 17.432 10.8931 17.212 10.7331 16.932C10.5731 16.652 10.4931 16.332 10.4931 15.972C10.4931 15.62 10.5731 15.304 10.7331 15.024C10.8931 14.736 11.1091 14.512 11.3811 14.352C11.6611 14.192 11.9771 14.112 12.3291 14.112C12.6731 14.112 12.9811 14.192 13.2531 14.352C13.5251 14.512 13.7411 14.732 13.9011 15.012C14.0611 15.292 14.1411 15.612 14.1411 15.972C14.1411 16.324 14.0611 16.644 13.9011 16.932C13.7411 17.212 13.5211 17.432 13.2411 17.592C12.9691 17.752 12.6571 17.832 12.3051 17.832ZM12.2451 22.5H11.3571L16.5291 14.22H17.4171L12.2451 22.5ZM11.4531 15.396C11.3731 15.556 11.3331 15.748 11.3331 15.972C11.3331 16.196 11.3731 16.392 11.4531 16.56C11.5411 16.72 11.6571 16.848 11.8011 16.944C11.9531 17.04 12.1251 17.088 12.3171 17.088C12.5091 17.088 12.6771 17.04 12.8211 16.944C12.9731 16.848 13.0891 16.72 13.1691 16.56C13.2571 16.392 13.3011 16.196 13.3011 15.972C13.3011 15.748 13.2571 15.556 13.1691 15.396C13.0891 15.228 12.9731 15.096 12.8211 15C12.6771 14.904 12.5091 14.856 12.3171 14.856C12.1251 14.856 11.9531 14.904 11.8011 15C11.6571 15.096 11.5411 15.228 11.4531 15.396ZM16.4451 22.608C16.1011 22.608 15.7931 22.528 15.5211 22.368C15.2491 22.208 15.0331 21.988 14.8731 21.708C14.7131 21.428 14.6331 21.108 14.6331 20.748C14.6331 20.396 14.7131 20.08 14.8731 19.8C15.0331 19.512 15.2491 19.288 15.5211 19.128C15.8011 18.968 16.1171 18.888 16.4691 18.888C16.8131 18.888 17.1211 18.968 17.3931 19.128C17.6651 19.288 17.8811 19.508 18.0411 19.788C18.2011 20.068 18.2811 20.388 18.2811 20.748C18.2811 21.1 18.2011 21.42 18.0411 21.708C17.8811 21.988 17.6611 22.208 17.3811 22.368C17.1091 22.528 16.7971 22.608 16.4451 22.608ZM15.9411 21.72C16.0931 21.816 16.2651 21.864 16.4571 21.864C16.6491 21.864 16.8171 21.816 16.9611 21.72C17.1131 21.624 17.2291 21.496 17.3091 21.336C17.3971 21.168 17.4411 20.972 17.4411 20.748C17.4411 20.524 17.3971 20.332 17.3091 20.172C17.2291 20.004 17.1131 19.872 16.9611 19.776C16.8171 19.68 16.6491 19.632 16.4571 19.632C16.2651 19.632 16.0931 19.68 15.9411 19.776C15.7971 19.872 15.6811 20.004 15.5931 20.172C15.5131 20.332 15.4731 20.524 15.4731 20.748C15.4731 20.972 15.5131 21.168 15.5931 21.336C15.6811 21.496 15.7971 21.624 15.9411 21.72ZM23.9644 22.164C23.5084 22.508 22.9684 22.68 22.3444 22.68C21.7204 22.68 21.1804 22.508 20.7244 22.164C20.2764 21.812 19.9284 21.312 19.6804 20.664C19.4404 20.016 19.3204 19.248 19.3204 18.36C19.3204 17.472 19.4444 16.704 19.6924 16.056C19.9404 15.408 20.2924 14.912 20.7484 14.568C21.2044 14.216 21.7444 14.04 22.3684 14.04C22.9924 14.04 23.5284 14.216 23.9764 14.568C24.4324 14.912 24.7804 15.408 25.0204 16.056C25.2684 16.704 25.3924 17.472 25.3924 18.36C25.3924 19.248 25.2684 20.016 25.0204 20.664C24.7724 21.312 24.4204 21.812 23.9644 22.164ZM21.2524 21.384C21.5564 21.648 21.9244 21.78 22.3564 21.78C22.7884 21.78 23.1524 21.648 23.4484 21.384C23.7524 21.112 23.9844 20.72 24.1444 20.208C24.3044 19.696 24.3844 19.08 24.3844 18.36C24.3844 17.632 24.3044 17.016 24.1444 16.512C23.9844 16 23.7524 15.612 23.4484 15.348C23.1524 15.076 22.7884 14.94 22.3564 14.94C21.9244 14.94 21.5564 15.076 21.2524 15.348C20.9564 15.612 20.7284 16 20.5684 16.512C20.4084 17.016 20.3284 17.632 20.3284 18.36C20.3284 19.08 20.4084 19.696 20.5684 20.208C20.7284 20.72 20.9564 21.112 21.2524 21.384Z" fill="white"/>
<path d="M21.5 17.5C22.4283 17.5 23.3185 17.1313 23.9749 16.4749C24.6313 15.8185 25 14.9283 25 14C25 13.0717 24.6313 12.1815 23.9749 11.5251C23.3185 10.8687 22.4283 10.5 21.5 10.5M21.143 26.5H11.857C10.831 26.5 10 25.733 10 24.786C10 22.419 12.079 20.5 14.643 20.5H18.357C19.3511 20.4964 20.3228 20.7953 21.143 21.357M27 20.5V26.5M30 23.5H24M20 14C20 14.9283 19.6313 15.8185 18.9749 16.4749C18.3185 17.1313 17.4283 17.5 16.5 17.5C15.5717 17.5 14.6815 17.1313 14.0251 16.4749C13.3687 15.8185 13 14.9283 13 14C13 13.0717 13.3687 12.1815 14.0251 11.5251C14.6815 10.8687 15.5717 10.5 16.5 10.5C17.4283 10.5 18.3185 10.8687 18.9749 11.5251C19.6313 12.1815 20 13.0717 20 14Z" stroke="#2CBB00" stroke-width="1.5" stroke-linecap="round" stroke-linejoin="round"/>
</svg>
