<svg width="32" height="33" viewBox="0 0 32 33" fill="none" xmlns="http://www.w3.org/2000/svg">
<path fill-rule="evenodd" clip-rule="evenodd" d="M16.1156 29.8333C15.9505 29.8333 15.7854 29.7954 15.6364 29.7182L10.835 27.2328C9.47253 26.5267 8.40673 25.7344 7.5745 24.8114C5.75298 22.7927 4.73953 20.2013 4.72342 17.5132L4.66704 8.66564C4.66033 7.64452 5.31941 6.728 6.30467 6.38283L15.121 3.30901C15.6445 3.12204 16.2284 3.11943 16.7613 3.29986L25.6112 6.26908C26.6018 6.59987 27.2716 7.50985 27.277 8.52967L27.3334 17.3837C27.3508 20.0679 26.3723 22.6698 24.5789 24.7107C23.7561 25.6468 22.6997 26.4509 21.3507 27.17L16.5922 29.7117C16.4445 29.7915 16.2808 29.832 16.1156 29.8333Z" fill="#C3EBC0"/>
<path fill-rule="evenodd" clip-rule="evenodd" d="M15.0918 19.5946C14.8341 19.5959 14.5764 19.503 14.3777 19.3121L11.822 16.8541C11.4273 16.4724 11.4233 15.8526 11.8139 15.4682C12.2045 15.0825 12.8421 15.0786 13.2381 15.4591L15.0771 17.2268L19.5671 12.7997C19.9591 12.414 20.5967 12.4101 20.9913 12.7906C21.3873 13.1723 21.3913 13.7934 21.0007 14.1765L15.8019 19.303C15.6059 19.4965 15.3496 19.5932 15.0918 19.5946Z" fill="#3BA935"/>
</svg>
