<svg width="12" height="13" viewBox="0 0 12 13" fill="none" xmlns="http://www.w3.org/2000/svg">
<path d="M8.95944 7.31845C8.82994 7.44395 8.77044 7.62545 8.79994 7.80345L9.24444 10.2634C9.28194 10.4719 9.19394 10.6829 9.01944 10.8034C8.84844 10.9284 8.62094 10.9434 8.43444 10.8434L6.21994 9.68845C6.14294 9.64745 6.05744 9.62545 5.96994 9.62295H5.83444C5.78744 9.62995 5.74144 9.64495 5.69944 9.66795L3.48444 10.8284C3.37494 10.8834 3.25094 10.9029 3.12944 10.8834C2.83344 10.8274 2.63594 10.5454 2.68444 10.2479L3.12944 7.78795C3.15894 7.60845 3.09944 7.42595 2.96994 7.29845L1.16444 5.54845C1.01344 5.40195 0.960938 5.18195 1.02994 4.98345C1.09694 4.78545 1.26794 4.64095 1.47444 4.60845L3.95944 4.24795C4.14844 4.22845 4.31444 4.11345 4.39944 3.94345L5.49444 1.69845C5.52044 1.64845 5.55394 1.60245 5.59444 1.56345L5.63944 1.52845C5.66294 1.50245 5.68994 1.48095 5.71994 1.46345L5.77444 1.44345L5.85944 1.40845H6.06994C6.25794 1.42795 6.42344 1.54045 6.50994 1.70845L7.61944 3.94345C7.69944 4.10695 7.85494 4.22045 8.03444 4.24795L10.5194 4.60845C10.7294 4.63845 10.9049 4.78345 10.9744 4.98345C11.0399 5.18395 10.9834 5.40395 10.8294 5.54845L8.95944 7.31845Z" fill="#FFD656"/>
</svg>
