<svg width="12" height="12" viewBox="0 0 12 12" fill="none" xmlns="http://www.w3.org/2000/svg">
<path d="M2.14291 8.91798e-07C2.06339 3.76565e-06 1.98544 0.0238351 1.91778 0.0688287C1.85012 0.113822 1.79541 0.178204 1.75979 0.25477L0.0455862 3.94708C0.00851393 4.02657 -0.00643605 4.11592 0.00253553 4.20435C0.0115071 4.29278 0.0440179 4.37654 0.0961552 4.44554L4.30195 10.02C4.29051 9.91121 4.28507 9.80179 4.28567 9.69231C4.28567 9.36462 4.34909 9.05262 4.46394 8.77015L1.32867 4.61539H3.54256L4.64393 8.41385C4.82307 8.12585 5.05963 7.88308 5.33733 7.70585L4.43994 4.61539H5.71702C5.82919 4.27487 6.00215 3.96128 6.22614 3.69231H4.40566L5.04849 0.923078H6.95125L7.40551 2.88462C7.68355 2.79521 7.97363 2.75713 8.26347 2.772L7.83492 0.923078H9.59198L10.8776 3.69231H10.0591C10.2802 3.95908 10.4551 4.27108 10.5674 4.61539H10.6702L10.5974 4.71231C10.7268 5.15805 10.7495 5.63181 10.6634 6.08954L11.9036 4.44462C11.9557 4.3758 11.9882 4.29226 11.9974 4.20401C12.0065 4.11576 11.9918 4.02655 11.955 3.94708L10.2408 0.25477C10.2051 0.178063 10.1503 0.113589 10.0824 0.068586C10.0146 0.0235828 9.93649 -0.000167743 9.85682 8.91798e-07H2.14291ZM1.12211 3.69231L2.40776 0.923078H4.16481L3.52199 3.69231H1.12211ZM9.85682 5.53846C9.85682 6.02809 9.67622 6.49767 9.35474 6.84389C9.03327 7.19011 8.59725 7.38462 8.14262 7.38462C7.68799 7.38462 7.25197 7.19011 6.9305 6.84389C6.60902 6.49767 6.42842 6.02809 6.42842 5.53846C6.42842 5.04883 6.60902 4.57926 6.9305 4.23303C7.25197 3.88681 7.68799 3.69231 8.14262 3.69231C8.59725 3.69231 9.03327 3.88681 9.35474 4.23303C9.67622 4.57926 9.85682 5.04883 9.85682 5.53846ZM11.1425 9.69231C11.1425 10.8415 10.2854 12 8.14262 12C5.99987 12 5.14277 10.8462 5.14277 9.69231C5.14277 9.32509 5.27822 8.9729 5.51932 8.71324C5.76043 8.45357 6.08744 8.30769 6.42842 8.30769H9.85682C10.1978 8.30769 10.5248 8.45357 10.7659 8.71324C11.007 8.9729 11.1425 9.32509 11.1425 9.69231Z" fill="#1A6C00"/>
</svg>
