<svg width="68" height="67" viewBox="0 0 68 67" fill="none" xmlns="http://www.w3.org/2000/svg">
<circle cx="33" cy="33" r="32" stroke="#EAECF0" stroke-width="2"/>
<path d="M42 41C42 39.258 40.33 37.777 38 37.227M36 41C36 38.79 33.314 37 30 37C26.686 37 24 38.79 24 41M36 34C37.0609 34 38.0783 33.5786 38.8284 32.8284C39.5786 32.0783 40 31.0609 40 30C40 28.9391 39.5786 27.9217 38.8284 27.1716C38.0783 26.4214 37.0609 26 36 26M30 34C28.9391 34 27.9217 33.5786 27.1716 32.8284C26.4214 32.0783 26 31.0609 26 30C26 28.9391 26.4214 27.9217 27.1716 27.1716C27.9217 26.4214 28.9391 26 30 26C31.0609 26 32.0783 26.4214 32.8284 27.1716C33.5786 27.9217 34 28.9391 34 30C34 31.0609 33.5786 32.0783 32.8284 32.8284C32.0783 33.5786 31.0609 34 30 34Z" stroke="#01B200" stroke-width="2" stroke-linecap="round" stroke-linejoin="round"/>
<path d="M33 1C37.2023 1 41.3635 1.8277 45.2459 3.43586C49.1283 5.04401 52.6559 7.40111 55.6274 10.3726C58.5989 13.3441 60.956 16.8717 62.5641 20.7541C64.1723 24.6366 65 28.7977 65 33" stroke="#01B200" stroke-width="2" stroke-linecap="round"/>
</svg>
